<svg xmlns="http://www.w3.org/2000/svg" width="93" height="124" viewBox="0 -0.5 93 124"><path stroke="#000" d="M28 28h10m-10 1h10m-10 1h10m-10 1h10m-10 1h10m-10 1h10m-10 1h10m-10 1h10m-10 1h10m-10 1h10m0 1h10m-10 1h10m-10 1h10m-10 1h10m-10 1h10m-10 1h10m-10 1h10m-10 1h10m-10 1h10m-10 1h10m0 1h10m-10 1h10m-10 1h10m-10 1h10m-10 1h10m-10 1h10m-10 1h10m-10 1h10m-10 1h10m-10 1h10m0 1h10m-10 1h10m-10 1h10m-10 1h10m-10 1h10m-10 1h10m-10 1h10m-10 1h10m-10 1h10m-10 1h10m-20 1h10m-10 1h10m-10 1h10m-10 1h10m-10 1h10m-10 1h10m-10 1h10m-10 1h10m-10 1h10m-10 1h10m-20 1h10m-10 1h10m-10 1h10m-10 1h10m-10 1h10m-10 1h10m-10 1h10m-10 1h10m-10 1h10m-10 1h10m-20 1h10m-10 1h10m-10 1h10m-10 1h10m-10 1h10m-10 1h10m-10 1h10m-10 1h10m-10 1h10m-10 1h10"/></svg>
